<svg width="18" height="18" viewBox="0 0 18 18" fill="none" xmlns="http://www.w3.org/2000/svg">
<path d="M12.232 0H5.76796C2.58564 0 0 2.6 0 5.8V12.3C0 15.4 2.58564 18 5.76796 18H12.232C15.4144 18 18 15.4 18 12.2V5.8C17.9006 2.6 15.3149 0 12.232 0ZM5.76796 1.5H12.232C14.5193 1.5 16.5083 3.4 16.5083 5.8V10.8C14.221 9.1 11.6354 8.3 8.95028 8.3C6.26519 8.3 3.67956 9.2 1.49171 10.7V5.8C1.49171 3.4 3.38122 1.5 5.76796 1.5ZM12.232 16.5H5.76796C3.58011 16.5 1.79006 14.8 1.59116 12.6C3.58011 10.8 6.16575 9.8 8.95028 9.8C11.7348 9.8 14.3204 10.8 16.4088 12.6C16.2099 14.8 14.4199 16.5 12.232 16.5Z" fill="white"/>
</svg>
