<svg width="189" height="186" viewBox="0 0 189 186" fill="none" xmlns="http://www.w3.org/2000/svg">
<g id="6-&#209;&#130;&#208;&#184; &#209;&#131;&#208;&#179;&#208;&#190;&#208;&#187;&#209;&#140;&#208;&#189;&#208;&#184;&#208;&#186;&#208;&#184;">
<circle id="Ellipse 4" opacity="0.8" cx="164.503" cy="160.503" r="123.786" transform="rotate(-25 164.503 160.503)" fill="url(#paint0_radial_736_6456)"/>
<path id="Polygon 8" opacity="0.8" d="M157.98 147.82C160.55 144.134 164.897 142.108 169.372 142.507L185.882 143.983C190.332 144.381 194.234 147.118 196.122 151.167L203.201 166.347C205.089 170.396 204.678 175.145 202.122 178.809L192.64 192.406C190.069 196.091 185.723 198.117 181.248 197.718L164.737 196.242C160.287 195.844 156.386 193.107 154.497 189.058L147.419 173.878C145.531 169.829 145.942 165.08 148.497 161.416L157.98 147.82Z" stroke="#FF862E" stroke-opacity="0.61" stroke-width="7.01623"/>
<path id="Polygon 9" opacity="0.8" d="M146.644 124.647C149.416 120.687 154.091 118.507 158.907 118.928L200.502 122.567C205.317 122.989 209.543 125.947 211.586 130.328L229.232 168.17C231.275 172.551 230.825 177.69 228.052 181.65L204.103 215.852C201.331 219.812 196.656 221.992 191.84 221.571L150.246 217.931C145.43 217.51 141.204 214.552 139.161 210.17L121.516 172.329C119.473 167.948 119.922 162.809 122.695 158.849L146.644 124.647Z" stroke="#FF862E" stroke-opacity="0.41" stroke-width="5.0116"/>
<path id="Polygon 10" opacity="0.8" d="M132.114 94.6744C135.093 90.4211 140.114 88.0797 145.286 88.5322L219.194 94.9983C224.366 95.4508 228.905 98.6286 231.099 103.334L262.453 170.573C264.647 175.279 264.165 180.798 261.186 185.052L218.633 245.824C215.655 250.078 210.634 252.419 205.461 251.966L131.554 245.5C126.381 245.048 121.843 241.87 119.648 237.164L88.2943 169.925C86.0999 165.22 86.5828 159.7 89.561 155.447L132.114 94.6744Z" stroke="#FF862E" stroke-opacity="0.29" stroke-width="3.00696"/>
</g>
<defs>
<radialGradient id="paint0_radial_736_6456" cx="0" cy="0" r="1" gradientUnits="userSpaceOnUse" gradientTransform="translate(164.503 160.503) rotate(90) scale(123.786)">
<stop stop-color="#FF862E" stop-opacity="0.64"/>
<stop offset="1" stop-color="#FF862E" stop-opacity="0"/>
</radialGradient>
</defs>
</svg>
