<svg width="1920" height="1080" viewBox="0 0 1920 1080" fill="none" xmlns="http://www.w3.org/2000/svg">
<g opacity="0.4">
<path d="M0.0843744 -1H2.10312V1088.82H0.0843744V-1Z" fill="url(#paint0_linear_276_28)"/>
<path d="M101.022 -1H103.041V1088.82H101.022V-1Z" fill="url(#paint1_linear_276_28)"/>
<path d="M201.959 -1H203.978V1088.82H201.959V-1Z" fill="url(#paint2_linear_276_28)"/>
<path d="M302.897 -1H304.916V1088.82H302.897V-1Z" fill="url(#paint3_linear_276_28)"/>
<path d="M403.834 -1H405.853V1088.82H403.834V-1Z" fill="url(#paint4_linear_276_28)"/>
<path d="M504.772 -1H506.791V1088.82H504.772V-1Z" fill="url(#paint5_linear_276_28)"/>
<path d="M605.709 -1H607.728V1088.82H605.709V-1Z" fill="url(#paint6_linear_276_28)"/>
<path d="M-9 -1H1929V1.01818H-9V-1Z" fill="url(#paint7_linear_276_28)"/>
<path d="M706.647 -1H708.666V1088.82H706.647V-1Z" fill="url(#paint8_linear_276_28)"/>
<path d="M807.584 -1H809.603V1088.82H807.584V-1Z" fill="url(#paint9_linear_276_28)"/>
<path d="M908.522 -1H910.541V1088.82H908.522V-1Z" fill="url(#paint10_linear_276_28)"/>
<path d="M1009.46 -1H1011.48V1088.82H1009.46V-1Z" fill="url(#paint11_linear_276_28)"/>
<path d="M1110.4 -1H1112.42V1088.82H1110.4V-1Z" fill="url(#paint12_linear_276_28)"/>
<path d="M1211.33 -1H1213.35V1088.82H1211.33V-1Z" fill="url(#paint13_linear_276_28)"/>
<path d="M1312.27 -1H1314.29V1088.82H1312.27V-1Z" fill="url(#paint14_linear_276_28)"/>
<path d="M1413.21 -1H1415.23V1088.82H1413.21V-1Z" fill="url(#paint15_linear_276_28)"/>
<path d="M1514.15 -1H1516.17V1088.82H1514.15V-1Z" fill="url(#paint16_linear_276_28)"/>
<path d="M1615.08 -1H1617.1V1088.82H1615.08V-1Z" fill="url(#paint17_linear_276_28)"/>
<path d="M1716.02 -1H1718.04V1088.82H1716.02V-1Z" fill="url(#paint18_linear_276_28)"/>
<path d="M1816.96 -1H1818.98V1088.82H1816.96V-1Z" fill="url(#paint19_linear_276_28)"/>
<path d="M1917.9 -1H1919.92V1088.82H1917.9V-1Z" fill="url(#paint20_linear_276_28)"/>
<path d="M-9 97.8909H1929V99.9091H-9V97.8909Z" fill="url(#paint21_linear_276_28)"/>
<path d="M-9 198.8H1929V200.818H-9V198.8Z" fill="url(#paint22_linear_276_28)"/>
<path d="M-9 299.709H1929V301.727H-9V299.709Z" fill="url(#paint23_linear_276_28)"/>
<path d="M-9 400.618H1929V402.636H-9V400.618Z" fill="url(#paint24_linear_276_28)"/>
<path d="M-9 501.527H1929V503.545H-9V501.527Z" fill="url(#paint25_linear_276_28)"/>
<path d="M-9 602.436H1929V604.455H-9V602.436Z" fill="url(#paint26_linear_276_28)"/>
<path d="M-9 703.345H1929V705.364H-9V703.345Z" fill="url(#paint27_linear_276_28)"/>
<path d="M-9 804.255H1929V806.273H-9V804.255Z" fill="url(#paint28_linear_276_28)"/>
<path d="M-9 905.164H1929V907.182H-9V905.164Z" fill="url(#paint29_linear_276_28)"/>
<path d="M-9 1006.07H1929V1008.09H-9V1006.07Z" fill="url(#paint30_linear_276_28)"/>
<path d="M-9 1106.98H1929V1109H-9V1106.98Z" fill="url(#paint31_linear_276_28)"/>
</g>
<defs>
<linearGradient id="paint0_linear_276_28" x1="960" y1="-1" x2="960" y2="1109" gradientUnits="userSpaceOnUse">
<stop stop-color="#323742"/>
<stop offset="0.390625" stop-color="#323742" stop-opacity="0.12"/>
<stop offset="1" stop-color="#323742" stop-opacity="0"/>
</linearGradient>
<linearGradient id="paint1_linear_276_28" x1="960" y1="-1" x2="960" y2="1109" gradientUnits="userSpaceOnUse">
<stop stop-color="#323742"/>
<stop offset="0.390625" stop-color="#323742" stop-opacity="0.12"/>
<stop offset="1" stop-color="#323742" stop-opacity="0"/>
</linearGradient>
<linearGradient id="paint2_linear_276_28" x1="960" y1="-1" x2="960" y2="1109" gradientUnits="userSpaceOnUse">
<stop stop-color="#323742"/>
<stop offset="0.390625" stop-color="#323742" stop-opacity="0.12"/>
<stop offset="1" stop-color="#323742" stop-opacity="0"/>
</linearGradient>
<linearGradient id="paint3_linear_276_28" x1="960" y1="-1" x2="960" y2="1109" gradientUnits="userSpaceOnUse">
<stop stop-color="#323742"/>
<stop offset="0.390625" stop-color="#323742" stop-opacity="0.12"/>
<stop offset="1" stop-color="#323742" stop-opacity="0"/>
</linearGradient>
<linearGradient id="paint4_linear_276_28" x1="960" y1="-1" x2="960" y2="1109" gradientUnits="userSpaceOnUse">
<stop stop-color="#323742"/>
<stop offset="0.390625" stop-color="#323742" stop-opacity="0.12"/>
<stop offset="1" stop-color="#323742" stop-opacity="0"/>
</linearGradient>
<linearGradient id="paint5_linear_276_28" x1="960" y1="-1" x2="960" y2="1109" gradientUnits="userSpaceOnUse">
<stop stop-color="#323742"/>
<stop offset="0.390625" stop-color="#323742" stop-opacity="0.12"/>
<stop offset="1" stop-color="#323742" stop-opacity="0"/>
</linearGradient>
<linearGradient id="paint6_linear_276_28" x1="960" y1="-1" x2="960" y2="1109" gradientUnits="userSpaceOnUse">
<stop stop-color="#323742"/>
<stop offset="0.390625" stop-color="#323742" stop-opacity="0.12"/>
<stop offset="1" stop-color="#323742" stop-opacity="0"/>
</linearGradient>
<linearGradient id="paint7_linear_276_28" x1="960" y1="-1" x2="960" y2="1109" gradientUnits="userSpaceOnUse">
<stop stop-color="#323742"/>
<stop offset="0.390625" stop-color="#323742" stop-opacity="0.12"/>
<stop offset="1" stop-color="#323742" stop-opacity="0"/>
</linearGradient>
<linearGradient id="paint8_linear_276_28" x1="960" y1="-1" x2="960" y2="1109" gradientUnits="userSpaceOnUse">
<stop stop-color="#323742"/>
<stop offset="0.390625" stop-color="#323742" stop-opacity="0.12"/>
<stop offset="1" stop-color="#323742" stop-opacity="0"/>
</linearGradient>
<linearGradient id="paint9_linear_276_28" x1="960" y1="-1" x2="960" y2="1109" gradientUnits="userSpaceOnUse">
<stop stop-color="#323742"/>
<stop offset="0.390625" stop-color="#323742" stop-opacity="0.12"/>
<stop offset="1" stop-color="#323742" stop-opacity="0"/>
</linearGradient>
<linearGradient id="paint10_linear_276_28" x1="960" y1="-1" x2="960" y2="1109" gradientUnits="userSpaceOnUse">
<stop stop-color="#323742"/>
<stop offset="0.390625" stop-color="#323742" stop-opacity="0.12"/>
<stop offset="1" stop-color="#323742" stop-opacity="0"/>
</linearGradient>
<linearGradient id="paint11_linear_276_28" x1="960" y1="-1" x2="960" y2="1109" gradientUnits="userSpaceOnUse">
<stop stop-color="#323742"/>
<stop offset="0.390625" stop-color="#323742" stop-opacity="0.12"/>
<stop offset="1" stop-color="#323742" stop-opacity="0"/>
</linearGradient>
<linearGradient id="paint12_linear_276_28" x1="960" y1="-1" x2="960" y2="1109" gradientUnits="userSpaceOnUse">
<stop stop-color="#323742"/>
<stop offset="0.390625" stop-color="#323742" stop-opacity="0.12"/>
<stop offset="1" stop-color="#323742" stop-opacity="0"/>
</linearGradient>
<linearGradient id="paint13_linear_276_28" x1="960" y1="-1" x2="960" y2="1109" gradientUnits="userSpaceOnUse">
<stop stop-color="#323742"/>
<stop offset="0.390625" stop-color="#323742" stop-opacity="0.12"/>
<stop offset="1" stop-color="#323742" stop-opacity="0"/>
</linearGradient>
<linearGradient id="paint14_linear_276_28" x1="960" y1="-1" x2="960" y2="1109" gradientUnits="userSpaceOnUse">
<stop stop-color="#323742"/>
<stop offset="0.390625" stop-color="#323742" stop-opacity="0.12"/>
<stop offset="1" stop-color="#323742" stop-opacity="0"/>
</linearGradient>
<linearGradient id="paint15_linear_276_28" x1="960" y1="-1" x2="960" y2="1109" gradientUnits="userSpaceOnUse">
<stop stop-color="#323742"/>
<stop offset="0.390625" stop-color="#323742" stop-opacity="0.12"/>
<stop offset="1" stop-color="#323742" stop-opacity="0"/>
</linearGradient>
<linearGradient id="paint16_linear_276_28" x1="960" y1="-1" x2="960" y2="1109" gradientUnits="userSpaceOnUse">
<stop stop-color="#323742"/>
<stop offset="0.390625" stop-color="#323742" stop-opacity="0.12"/>
<stop offset="1" stop-color="#323742" stop-opacity="0"/>
</linearGradient>
<linearGradient id="paint17_linear_276_28" x1="960" y1="-1" x2="960" y2="1109" gradientUnits="userSpaceOnUse">
<stop stop-color="#323742"/>
<stop offset="0.390625" stop-color="#323742" stop-opacity="0.12"/>
<stop offset="1" stop-color="#323742" stop-opacity="0"/>
</linearGradient>
<linearGradient id="paint18_linear_276_28" x1="960" y1="-1" x2="960" y2="1109" gradientUnits="userSpaceOnUse">
<stop stop-color="#323742"/>
<stop offset="0.390625" stop-color="#323742" stop-opacity="0.12"/>
<stop offset="1" stop-color="#323742" stop-opacity="0"/>
</linearGradient>
<linearGradient id="paint19_linear_276_28" x1="960" y1="-1" x2="960" y2="1109" gradientUnits="userSpaceOnUse">
<stop stop-color="#323742"/>
<stop offset="0.390625" stop-color="#323742" stop-opacity="0.12"/>
<stop offset="1" stop-color="#323742" stop-opacity="0"/>
</linearGradient>
<linearGradient id="paint20_linear_276_28" x1="960" y1="-1" x2="960" y2="1109" gradientUnits="userSpaceOnUse">
<stop stop-color="#323742"/>
<stop offset="0.390625" stop-color="#323742" stop-opacity="0.12"/>
<stop offset="1" stop-color="#323742" stop-opacity="0"/>
</linearGradient>
<linearGradient id="paint21_linear_276_28" x1="960" y1="-1" x2="960" y2="1109" gradientUnits="userSpaceOnUse">
<stop stop-color="#323742"/>
<stop offset="0.390625" stop-color="#323742" stop-opacity="0.12"/>
<stop offset="1" stop-color="#323742" stop-opacity="0"/>
</linearGradient>
<linearGradient id="paint22_linear_276_28" x1="960" y1="-1" x2="960" y2="1109" gradientUnits="userSpaceOnUse">
<stop stop-color="#323742"/>
<stop offset="0.390625" stop-color="#323742" stop-opacity="0.12"/>
<stop offset="1" stop-color="#323742" stop-opacity="0"/>
</linearGradient>
<linearGradient id="paint23_linear_276_28" x1="960" y1="-1" x2="960" y2="1109" gradientUnits="userSpaceOnUse">
<stop stop-color="#323742"/>
<stop offset="0.390625" stop-color="#323742" stop-opacity="0.12"/>
<stop offset="1" stop-color="#323742" stop-opacity="0"/>
</linearGradient>
<linearGradient id="paint24_linear_276_28" x1="960" y1="-1" x2="960" y2="1109" gradientUnits="userSpaceOnUse">
<stop stop-color="#323742"/>
<stop offset="0.390625" stop-color="#323742" stop-opacity="0.12"/>
<stop offset="1" stop-color="#323742" stop-opacity="0"/>
</linearGradient>
<linearGradient id="paint25_linear_276_28" x1="960" y1="-1" x2="960" y2="1109" gradientUnits="userSpaceOnUse">
<stop stop-color="#323742"/>
<stop offset="0.390625" stop-color="#323742" stop-opacity="0.12"/>
<stop offset="1" stop-color="#323742" stop-opacity="0"/>
</linearGradient>
<linearGradient id="paint26_linear_276_28" x1="960" y1="-1" x2="960" y2="1109" gradientUnits="userSpaceOnUse">
<stop stop-color="#323742"/>
<stop offset="0.390625" stop-color="#323742" stop-opacity="0.12"/>
<stop offset="1" stop-color="#323742" stop-opacity="0"/>
</linearGradient>
<linearGradient id="paint27_linear_276_28" x1="960" y1="-1" x2="960" y2="1109" gradientUnits="userSpaceOnUse">
<stop stop-color="#323742"/>
<stop offset="0.390625" stop-color="#323742" stop-opacity="0.12"/>
<stop offset="1" stop-color="#323742" stop-opacity="0"/>
</linearGradient>
<linearGradient id="paint28_linear_276_28" x1="960" y1="-1" x2="960" y2="1109" gradientUnits="userSpaceOnUse">
<stop stop-color="#323742"/>
<stop offset="0.390625" stop-color="#323742" stop-opacity="0.12"/>
<stop offset="1" stop-color="#323742" stop-opacity="0"/>
</linearGradient>
<linearGradient id="paint29_linear_276_28" x1="960" y1="-1" x2="960" y2="1109" gradientUnits="userSpaceOnUse">
<stop stop-color="#323742"/>
<stop offset="0.390625" stop-color="#323742" stop-opacity="0.12"/>
<stop offset="1" stop-color="#323742" stop-opacity="0"/>
</linearGradient>
<linearGradient id="paint30_linear_276_28" x1="960" y1="-1" x2="960" y2="1109" gradientUnits="userSpaceOnUse">
<stop stop-color="#323742"/>
<stop offset="0.390625" stop-color="#323742" stop-opacity="0.12"/>
<stop offset="1" stop-color="#323742" stop-opacity="0"/>
</linearGradient>
<linearGradient id="paint31_linear_276_28" x1="960" y1="-1" x2="960" y2="1109" gradientUnits="userSpaceOnUse">
<stop stop-color="#323742"/>
<stop offset="0.390625" stop-color="#323742" stop-opacity="0.12"/>
<stop offset="1" stop-color="#323742" stop-opacity="0"/>
</linearGradient>
</defs>
</svg>
