<svg width="14" height="14" viewBox="0 0 14 14" fill="none" xmlns="http://www.w3.org/2000/svg">
<g id="Group">
<path id="Vector" d="M12.1996 13C11.9996 13 11.7996 12.9 11.6996 12.8L6.99961 8.10001L2.29961 12.8C1.99961 13.1 1.49961 13.1 1.19961 12.8C0.899609 12.5 0.899609 12 1.19961 11.7L5.89961 7.00001L1.19961 2.30001C0.899609 2.00001 0.899609 1.50001 1.19961 1.20001C1.49961 0.900006 1.99961 0.900006 2.29961 1.20001L6.99961 5.90001L11.6996 1.20001C11.9996 0.900006 12.4996 0.900006 12.7996 1.20001C13.0996 1.50001 13.0996 2.00001 12.7996 2.30001L8.09961 7.00001L12.7996 11.7C13.0996 12 13.0996 12.5 12.7996 12.8C12.5996 12.9 12.3996 13 12.1996 13Z" fill="white"/>
</g>
</svg>
