<svg width="18" height="18" viewBox="0 0 18 18" fill="none" xmlns="http://www.w3.org/2000/svg">
<g id="bebra 4">
<path id="Vector" d="M3 9C3 9.27 2.89 9.52 2.71 9.71C2.52 9.89 2.27 10 2 10C1.73 10 1.48 9.89 1.29 9.71C1.11 9.52 1 9.27 1 9C1 8.73 1.11 8.48 1.29 8.29C1.48 8.11 1.73 8 2 8C2.27 8 2.52 8.11 2.71 8.29C2.89 8.48 3 8.73 3 9ZM10 9C10 9.27 9.89 9.52 9.71 9.71C9.53 9.9 9.27 10 9 10C8.73 10 8.48 9.89 8.29 9.71C8.19608 9.61748 8.12195 9.50683 8.07209 9.38478C8.02224 9.26273 7.99771 9.13182 8 9C8 8.73 8.11 8.48 8.29 8.29C8.47 8.1 8.73 8 9 8C9.27 8 9.52 8.11 9.71 8.29C9.9 8.47 10 8.73 10 9ZM17 9C17 9.27 16.89 9.52 16.71 9.71C16.53 9.9 16.27 10 16 10C15.73 10 15.48 9.89 15.29 9.71C15.1961 9.61748 15.1219 9.50683 15.0721 9.38478C15.0222 9.26273 14.9977 9.13182 15 9C15 8.73 15.11 8.48 15.29 8.29C15.47 8.1 15.73 8 16 8C16.27 8 16.52 8.11 16.71 8.29C16.9 8.47 17 8.73 17 9Z" fill="white"/>
</g>
</svg>
