<svg width="133" height="19" viewBox="0 0 133 19" fill="none" xmlns="http://www.w3.org/2000/svg">
  <path
    d="M2.316 18H0.0600001V6.96C0.0600001 5.072 0.564 3.6 1.572 2.544C2.596 1.488 3.948 0.959999 5.628 0.959999C7.42 0.959999 8.804 1.472 9.78 2.496C10.772 3.52 11.268 4.824 11.268 6.408C11.268 7.4 11.084 8.264 10.716 9C10.364 9.736 9.884 10.304 9.276 10.704C8.668 11.104 8.02 11.4 7.332 11.592C6.644 11.784 5.924 11.88 5.172 11.88H3.372V9.768H5.436C6.508 9.768 7.348 9.448 7.956 8.808C8.58 8.152 8.892 7.336 8.892 6.36C8.892 5.4 8.604 4.616 8.028 4.008C7.468 3.384 6.66 3.072 5.604 3.072C4.58 3.072 3.772 3.424 3.18 4.128C2.604 4.816 2.316 5.728 2.316 6.864V18ZM15.6692 1.2V6.48H17.7092C19.4852 6.48 20.7572 6.744 21.5252 7.272C22.2132 7.736 22.6452 8.296 22.8212 8.952C23.0132 9.592 23.1092 10.44 23.1092 11.496V18H20.9972V11.52C20.9972 11.232 20.9892 10.992 20.9732 10.8C20.9572 10.592 20.9012 10.336 20.8052 10.032C20.7092 9.712 20.5732 9.456 20.3972 9.264C20.2212 9.056 19.9652 8.88 19.6292 8.736C19.2932 8.576 18.8852 8.496 18.4052 8.496H15.6692V18H13.5572V1.2H15.6692ZM32.3871 11.232V13.392C31.7791 12.928 31.0351 12.696 30.1551 12.696C29.4031 12.696 28.8191 12.848 28.4031 13.152C27.9871 13.44 27.7791 13.856 27.7791 14.4C27.7791 15.456 28.5631 15.984 30.1311 15.984H33.2991V11.4C33.2991 9.464 32.3551 8.496 30.4671 8.496H26.6271V6.48H30.5871C32.1391 6.48 33.3311 6.864 34.1631 7.632C34.9951 8.4 35.4111 9.504 35.4111 10.944V18H30.0591C28.6991 18 27.6191 17.696 26.8191 17.088C26.0191 16.48 25.6191 15.592 25.6191 14.424C25.6191 13.256 26.0431 12.368 26.8911 11.76C27.7391 11.152 28.8031 10.848 30.0831 10.848C30.8031 10.848 31.5711 10.976 32.3871 11.232ZM38.1694 6.48H42.3214C44.0974 6.48 45.3694 6.744 46.1374 7.272C46.8254 7.736 47.2574 8.296 47.4334 8.952C47.6254 9.592 47.7214 10.44 47.7214 11.496V18H45.6094V11.52C45.6094 11.232 45.6014 10.992 45.5854 10.8C45.5694 10.592 45.5134 10.336 45.4174 10.032C45.3214 9.712 45.1854 9.456 45.0094 9.264C44.8334 9.056 44.5774 8.88 44.2414 8.736C43.9054 8.576 43.4974 8.496 43.0174 8.496H40.2814V18H38.1694V6.48ZM49.4119 8.496L53.7079 4.2V6.48H56.9479V8.496H53.7079V13.44C53.7079 14 53.7959 14.464 53.9719 14.832C54.1639 15.2 54.4359 15.464 54.7879 15.624C55.1399 15.768 55.4679 15.864 55.7719 15.912C56.0919 15.96 56.4839 15.984 56.9479 15.984V18C55.1079 18 53.7479 17.648 52.8679 16.944C51.9879 16.24 51.5479 15.072 51.5479 13.44V8.496H49.4119ZM60.5569 7.992C61.6769 6.824 63.0769 6.24 64.7569 6.24C65.5729 6.24 66.3329 6.4 67.0369 6.72C67.7569 7.024 68.3809 7.448 68.9089 7.992C69.4529 8.536 69.8769 9.176 70.1809 9.912C70.4849 10.632 70.6369 11.408 70.6369 12.24C70.6369 13.072 70.4849 13.856 70.1809 14.592C69.8929 15.312 69.4849 15.944 68.9569 16.488C68.4289 17.032 67.8049 17.464 67.0849 17.784C66.3649 18.088 65.5889 18.24 64.7569 18.24C63.9089 18.24 63.1249 18.088 62.4049 17.784C61.7009 17.464 61.0849 17.032 60.5569 16.488C60.0289 15.944 59.6129 15.312 59.3089 14.592C59.0209 13.856 58.8769 13.072 58.8769 12.24C58.8769 10.544 59.4369 9.128 60.5569 7.992ZM64.7569 8.256C63.6369 8.256 62.7329 8.624 62.0449 9.36C61.3729 10.096 61.0369 11.056 61.0369 12.24C61.0369 13.424 61.3729 14.384 62.0449 15.12C62.7329 15.856 63.6369 16.224 64.7569 16.224C65.8929 16.224 66.7969 15.856 67.4689 15.12C68.1409 14.368 68.4769 13.408 68.4769 12.24C68.4769 11.072 68.1409 10.12 67.4689 9.384C66.7969 8.632 65.8929 8.256 64.7569 8.256ZM73.2788 6.48H83.8628C84.9988 6.48 85.9028 6.696 86.5748 7.128C87.2628 7.56 87.7108 8.12 87.9188 8.808C88.1428 9.496 88.2548 10.32 88.2548 11.28V18H86.1428V11.28C86.1428 10.032 85.7668 9.208 85.0148 8.808C84.6308 8.6 83.8548 8.496 82.6868 8.496H81.7028V18H79.5908V8.496H75.3908V18H73.2788V6.48ZM91.1353 9.6C91.1513 6.928 91.8873 4.864 93.3433 3.408C94.8153 1.936 96.8393 1.2 99.4153 1.2H100.975V3.312H99.1273C97.3513 3.312 95.9833 3.904 95.0233 5.088C94.0793 6.256 93.5913 7.76 93.5593 9.6C93.5913 11.44 94.0793 12.952 95.0233 14.136C95.9833 15.304 97.3513 15.888 99.1273 15.888H100.975V18H99.4153C96.8393 18 94.8153 17.272 93.3433 15.816C91.8873 14.344 91.1513 12.272 91.1353 9.6ZM111.785 12.792H111.929L113.897 5.376C114.313 3.776 114.953 2.68 115.817 2.088C116.681 1.496 117.985 1.2 119.729 1.2V18H117.473V3.744C117.057 3.92 116.737 4.168 116.513 4.488C116.305 4.808 116.105 5.288 115.913 5.928L112.913 16.224H110.801L107.777 5.928C107.585 5.272 107.385 4.792 107.177 4.488C106.969 4.168 106.657 3.92 106.241 3.744V18H103.985V1.2C105.729 1.2 107.025 1.504 107.873 2.112C108.737 2.704 109.385 3.792 109.817 5.376L111.785 12.792ZM131.558 1.2V3.312H127.31C125.694 3.312 124.886 3.968 124.886 5.28C124.886 5.984 125.238 6.584 125.942 7.08C126.662 7.56 127.63 8.024 128.846 8.472C129.39 8.68 129.854 8.896 130.238 9.12C130.622 9.328 131.006 9.608 131.39 9.96C131.774 10.312 132.062 10.768 132.254 11.328C132.446 11.872 132.542 12.504 132.542 13.224C132.542 14.024 132.374 14.744 132.038 15.384C131.702 16.008 131.27 16.504 130.742 16.872C130.214 17.224 129.67 17.496 129.11 17.688C128.566 17.864 128.03 17.96 127.502 17.976C127.278 17.992 126.958 18 126.542 18H122.798V15.888H126.47C127.558 15.888 128.446 15.664 129.134 15.216C129.822 14.752 130.166 14.08 130.166 13.2C130.166 12.768 130.07 12.392 129.878 12.072C129.686 11.736 129.406 11.448 129.038 11.208C128.686 10.968 128.318 10.76 127.934 10.584C127.566 10.408 127.118 10.224 126.59 10.032C126.446 9.984 126.334 9.944 126.254 9.912C123.742 8.952 122.486 7.384 122.486 5.208C122.486 3.864 122.918 2.864 123.782 2.208C124.646 1.536 125.774 1.2 127.166 1.2H131.558Z"
    fill="white"/>
</svg>
