<svg width="32" height="29" viewBox="0 0 32 29" fill="none" xmlns="http://www.w3.org/2000/svg">
  <path d="M16 12.0556C19.2 12.0556 21.8667 9.38889 21.8667 6.18889C21.8667 2.98889 19.2 0.5 16 0.5C12.8 0.5 10.3111 3.16667 10.3111 6.36667C10.3111 9.56667 12.8 12.0556 16 12.0556ZM16 3.16667C17.7778 3.16667 19.2 4.58889 19.2 6.36667C19.2 8.14444 17.7778 9.38889 16 9.38889C14.2222 9.38889 12.9778 7.96667 12.9778 6.36667C12.9778 4.76667 14.2222 3.16667 16 3.16667ZM25.9556 15.2556C28.0889 15.2556 30.0444 13.4778 30.0444 11.1667C30.0444 8.85556 28.2667 7.07778 25.9556 7.07778C23.6444 7.07778 21.8667 8.85556 21.8667 11.1667C21.8667 13.4778 23.8222 15.2556 25.9556 15.2556ZM25.9556 9.92222C26.6667 9.92222 27.3778 10.4556 27.3778 11.3444C27.3778 12.2333 26.6667 12.5889 25.9556 12.5889C25.2444 12.5889 24.7111 11.8778 24.7111 11.1667C24.7111 10.4556 25.2444 9.92222 25.9556 9.92222ZM6.04445 15.2556C8.17778 15.2556 10.1333 13.4778 10.1333 11.1667C10.1333 8.85556 8.35556 7.07778 6.04445 7.07778C3.73333 7.07778 1.95556 9.03333 1.95556 11.1667C1.95556 13.3 3.73333 15.2556 6.04445 15.2556ZM6.04445 9.92222C6.75556 9.92222 7.46667 10.4556 7.46667 11.3444C7.46667 12.2333 6.75556 12.5889 6.04445 12.5889C5.33333 12.5889 4.62222 11.8778 4.62222 11.1667C4.62222 10.4556 5.33333 9.92222 6.04445 9.92222ZM25.9556 16.8556C24.8889 16.8556 24 17.2111 23.1111 17.5667C21.3333 15.4333 18.8444 14.1889 16 14.1889C13.1556 14.1889 10.4889 15.6111 8.88889 17.5667C8 17.0333 7.11111 16.8556 6.04445 16.8556C2.66667 16.8556 0 19.5222 0 22.9V25.7444C0 27.5222 1.42222 28.9444 3.2 28.9444H28.9778C30.7556 28.9444 32.1778 27.5222 32.1778 25.7444V22.9C32 19.7 29.3333 16.8556 25.9556 16.8556ZM3.2 26.2778C3.02222 26.2778 2.66667 26.1 2.66667 25.7444V22.9C2.66667 21.1222 4.08889 19.5222 6.04445 19.5222C6.57778 19.5222 7.11111 19.7 7.46667 19.8778C6.93333 20.9444 6.75556 22.1889 6.75556 23.6111V26.2778H3.2ZM21.3333 26.2778H9.42222V23.6111C9.42222 19.8778 12.4444 16.8556 16.1778 16.8556C19.9111 16.8556 22.9333 19.8778 22.9333 23.6111V26.2778H21.3333ZM29.3333 25.7444C29.3333 25.9222 29.1556 26.2778 28.8 26.2778H25.2444V23.6111C25.2444 22.3667 24.8889 21.1222 24.5333 19.8778C24.8889 19.7 25.4222 19.5222 25.9556 19.5222C27.7333 19.5222 29.3333 20.9444 29.3333 22.9V25.7444Z" fill="#FF4444"/>
</svg>
