<svg width="18" height="18" viewBox="0 0 18 18" fill="none" xmlns="http://www.w3.org/2000/svg">
<path d="M17.0247 0.980709C16.1234 0.0743566 14.8215 -0.227761 13.6198 0.175062L3.20466 3.69977C1.20175 4.304 0 6.11671 0 8.13083C0 10.2456 1.40204 11.9576 3.40495 12.4612C4.40641 12.7633 5.30772 13.5689 5.50801 14.576C6.10888 16.5901 7.81136 17.8993 9.81427 18H9.91441C11.9173 18 13.6198 16.7915 14.3208 14.8781L17.8259 4.304C18.2265 3.19624 17.9261 1.88706 17.0247 0.980709ZM16.4239 3.90118L12.9188 14.4753C12.4181 16.0866 11.016 16.6908 9.91441 16.5901C8.81281 16.5901 7.41077 15.9859 7.01019 14.2739C6.8099 13.7704 6.60961 13.1661 6.30917 12.7633L11.2163 7.92941C11.5167 7.6273 11.5167 7.12377 11.2163 6.82165C10.9159 6.51953 10.4151 6.51953 10.1147 6.82165L5.10742 11.6555C4.70684 11.3534 4.20611 11.152 3.70539 10.9506C2.10306 10.4471 1.50218 9.13788 1.40204 8.03012C1.40204 6.92236 1.90277 5.51247 3.5051 5.00894L14.0204 1.48424C14.2207 1.38353 14.421 1.38353 14.6213 1.38353C15.122 1.38353 15.5226 1.58494 15.9231 1.88706C16.524 2.4913 16.6242 3.19624 16.4239 3.90118Z" fill="white"/>
</svg>
