<svg width="32" height="32" viewBox="0 0 32 32" fill="none" xmlns="http://www.w3.org/2000/svg">
<g id="004">
<path id="Vector (Stroke)" opacity="0.5" fill-rule="evenodd" clip-rule="evenodd" d="M11.6667 6C8.53895 6 6 8.53895 6 11.6667V20.3333C6 23.461 8.53895 26 11.6667 26H20.3333C23.461 26 26 23.461 26 20.3333V11.6667C26 8.53895 23.461 6 20.3333 6H11.6667ZM4 11.6667C4 7.43438 7.43438 4 11.6667 4H20.3333C24.5656 4 28 7.43438 28 11.6667V20.3333C28 24.5656 24.5656 28 20.3333 28H11.6667C7.43438 28 4 24.5656 4 20.3333V11.6667ZM22.3547 11.9717C22.871 12.1675 23.1309 12.7449 22.935 13.2613C22.4759 14.4718 21.9641 15.3849 21.2179 16C21.9641 16.6151 22.4759 17.5282 22.935 18.7387C23.1309 19.2551 22.871 19.8325 22.3547 20.0283C21.8383 20.2242 21.2609 19.9644 21.065 19.448C20.5084 17.9806 20.0534 17.5234 19.5508 17.3013C19.261 17.1733 18.878 17.0896 18.3092 17.0453C17.9716 17.019 17.5946 17.008 17.16 17.0033V19.0933C17.16 19.6456 16.7123 20.0933 16.16 20.0933C12.2035 20.0933 9 16.8681 9 12.9067C9 12.3544 9.44772 11.9067 10 11.9067C10.5523 11.9067 11 12.3544 11 12.9067C11 15.4273 12.7928 17.5271 15.16 17.9957V12.9067C15.16 12.3544 15.6077 11.9067 16.16 11.9067C16.7123 11.9067 17.16 12.3544 17.16 12.9067V14.9967C17.5946 14.992 17.9716 14.981 18.3092 14.9547C18.878 14.9104 19.261 14.8267 19.5508 14.6987C20.0534 14.4766 20.5084 14.0194 21.065 12.552C21.2609 12.0356 21.8383 11.7758 22.3547 11.9717Z" fill="white"/>
</g>
</svg>
