<svg width="30" height="26" viewBox="0 0 30 26" fill="none" xmlns="http://www.w3.org/2000/svg">
<path d="M28.9196 22.3558C29.8004 23.8973 28.6993 25.8242 26.8826 25.8242H3.37463C1.55786 25.8242 0.456787 23.8973 1.33765 22.3558L13.1191 2.31629C14 0.774782 16.2572 0.774782 17.1931 2.31629L28.9196 22.3558ZM13.8348 8.64746V15.6943C13.8348 16.4651 14.4955 17.0156 15.1561 17.0156C15.8718 17.0156 16.4774 16.4651 16.4774 15.6943V8.64746C16.4774 7.93176 15.8718 7.32617 15.1561 7.32617C14.3854 7.32617 13.8348 7.93176 13.8348 8.64746ZM15.1561 22.3008C16.092 22.3008 16.8628 21.53 16.8628 20.5941C16.8628 19.6582 16.092 18.8875 15.1561 18.8875C14.1652 18.8875 13.3944 19.6582 13.3944 20.5941C13.3944 21.53 14.1652 22.3008 15.1561 22.3008Z" fill="white"/>
</svg>
