<svg width="32" height="32" viewBox="0 0 32 32" fill="none" xmlns="http://www.w3.org/2000/svg">
<g id="003" opacity="0.5">
<path id="Vector (Stroke)" fill-rule="evenodd" clip-rule="evenodd" d="M4 11.6666C4 8.16769 6.83438 5.33331 10.3333 5.33331H21.6667C25.1656 5.33331 28 8.16769 28 11.6666V20.3333C28 23.8323 25.1656 26.6666 21.6667 26.6666H10.3333C6.83438 26.6666 4 23.8323 4 20.3333V11.6666ZM10.3333 7.33331C7.93895 7.33331 6 9.27226 6 11.6666V20.3333C6 22.7277 7.93895 24.6666 10.3333 24.6666H21.6667C24.0611 24.6666 26 22.7277 26 20.3333V11.6666C26 9.27226 24.0611 7.33331 21.6667 7.33331H10.3333ZM12.0133 12.1333C12.0133 10.8663 13.3846 10.0518 14.499 10.6934L14.5002 10.6941L21.1887 14.5579C22.287 15.1789 22.3438 16.7938 21.1984 17.4308L14.5209 21.2883C13.3852 21.9659 12.0133 21.0985 12.0133 19.8533V12.1333ZM14.0133 12.7226L19.6818 15.9972L14.0133 19.2718V12.7226ZM20.2278 15.6821L20.2181 15.6876C20.2213 15.6857 20.2245 15.6839 20.2278 15.6821Z" fill="white"/>
</g>
</svg>
