<svg width="32" height="32" viewBox="0 0 32 32" fill="none" xmlns="http://www.w3.org/2000/svg">
<g id="SVG" clip-path="url(#clip0_276_33)">
<path id="Vector" d="M16 0C7.11111 0 0 7.11111 0 16C0 24.8889 7.11111 32 16 32C24.8889 32 32 24.8889 32 16C32 7.11111 24.8889 0 16 0ZM7.64444 26.4889C9.77778 24.1778 12.8 22.7556 16 22.7556C19.2 22.7556 22.2222 24.1778 24.3556 26.4889C22.0444 28.2667 19.2 29.3333 16 29.3333C12.8 29.3333 9.95556 28.2667 7.64444 26.4889ZM26.3111 24.5333C23.6444 21.6889 19.9111 19.9111 16 19.9111C12.0889 19.9111 8.35556 21.5111 5.68889 24.5333C3.73333 22.2222 2.66667 19.2 2.66667 16C2.66667 8.71111 8.71111 2.66667 16 2.66667C23.2889 2.66667 29.3333 8.71111 29.3333 16C29.3333 19.2 28.0889 22.2222 26.3111 24.5333Z" fill="white"/>
<path id="Vector_2" d="M16 6.39999C12.6222 6.39999 9.95557 9.06666 9.95557 12.4444C9.95557 15.8222 12.6222 18.4889 16 18.4889C19.3778 18.4889 22.0445 15.8222 22.0445 12.4444C22.0445 9.06666 19.3778 6.39999 16 6.39999ZM16 15.8222C14.2222 15.8222 12.6222 14.2222 12.6222 12.4444C12.6222 10.6667 14.2222 9.06666 16 9.06666C17.7778 9.06666 19.3778 10.6667 19.3778 12.4444C19.3778 14.2222 17.7778 15.8222 16 15.8222Z" fill="white"/>
</g>
<defs>
<clipPath id="clip0_276_33">
<rect width="32" height="32" fill="white"/>
</clipPath>
</defs>
</svg>
