<svg width="28" height="32" viewBox="0 0 28 32" fill="none" xmlns="http://www.w3.org/2000/svg">
<path d="M9 8V12H19V8C18.9583 6.58333 18.4792 5.39583 17.5625 4.4375C16.6042 3.52083 15.4167 3.04167 14 3C12.5833 3.04167 11.3958 3.52083 10.4375 4.4375C9.52083 5.39583 9.04167 6.58333 9 8ZM6 12V8C6.04167 5.75 6.8125 3.85417 8.3125 2.3125C9.85417 0.8125 11.75 0.041666 14 0C16.25 0.041666 18.1458 0.8125 19.6875 2.3125C21.1875 3.85417 21.9583 5.75 22 8V12H24C25.125 12.0417 26.0625 12.4375 26.8125 13.1875C27.5625 13.9375 27.9583 14.875 28 16V28C27.9583 29.125 27.5625 30.0625 26.8125 30.8125C26.0625 31.5625 25.125 31.9583 24 32H4C2.875 31.9583 1.9375 31.5625 1.1875 30.8125C0.4375 30.0625 0.0416667 29.125 0 28V16C0.0416667 14.875 0.4375 13.9375 1.1875 13.1875C1.9375 12.4375 2.875 12.0417 4 12H6ZM3 16V28C3.04167 28.625 3.375 28.9583 4 29H24C24.625 28.9583 24.9583 28.625 25 28V16C24.9583 15.375 24.625 15.0417 24 15H4C3.375 15.0417 3.04167 15.375 3 16Z" fill="white"/>
</svg>
